<svg width="44" height="44" viewBox="0 0 44 44" fill="none" xmlns="http://www.w3.org/2000/svg">
<path d="M22 41.25L10.4005 27.5701C10.2393 27.3647 10.0798 27.158 9.92202 26.95C7.94061 24.34 6.87021 21.1519 6.87502 17.875C6.87502 13.8636 8.46854 10.0165 11.305 7.18001C14.1415 4.34352 17.9886 2.75 22 2.75C26.0114 2.75 29.8585 4.34352 32.695 7.18001C35.5315 10.0165 37.125 13.8636 37.125 17.875C37.1298 21.1504 36.0599 24.337 34.0794 26.9459L34.078 26.95C34.078 26.95 33.6655 27.4918 33.6036 27.5646L22 41.25ZM12.1165 25.2931C12.1193 25.2931 12.4383 25.7166 12.5111 25.8074L22 36.9985L31.5013 25.7922C31.5618 25.7166 31.8835 25.2904 31.8849 25.289C33.5035 23.1565 34.3782 20.5522 34.375 17.875C34.375 14.5929 33.0712 11.4453 30.7505 9.12455C28.4297 6.80379 25.2821 5.5 22 5.5C18.718 5.5 15.5703 6.80379 13.2496 9.12455C10.9288 11.4453 9.62502 14.5929 9.62502 17.875C9.62213 20.5538 10.4978 23.1597 12.1179 25.2931H12.1165Z" fill="white"/>
<path d="M28.875 24.75H26.125V13.75H17.875V24.75H15.125V13.75C15.1257 13.0209 15.4157 12.3218 15.9313 11.8063C16.4468 11.2907 17.1459 11.0007 17.875 11H26.125C26.8541 11.0007 27.5532 11.2907 28.0687 11.8063C28.5843 12.3218 28.8743 13.0209 28.875 13.75V24.75Z" fill="white"/>
<path d="M20.625 22H23.375V24.75H20.625V22Z" fill="white"/>
<path d="M20.625 16.5H23.375V19.25H20.625V16.5Z" fill="white"/>
</svg>
